HIERARCHY
ROOT mixamorig:Hips
{
	OFFSET 0.000000 3.528733 0.000000
	CHANNELS 6 Xposition Yposition Zposition Xrotation Yrotation Zrotation
	JOINT mixamorig:Spine
	{
		OFFSET 0.000000 0.284700 -0.015200
		CHANNELS 3 Xrotation Yrotation Zrotation
		JOINT mixamorig:Spine1
		{
			OFFSET 0.000000 0.332125 -0.017771
			CHANNELS 3 Xrotation Yrotation Zrotation
			JOINT mixamorig:Spine2
			{
				OFFSET 0.000000 0.379557 -0.020309
				CHANNELS 3 Xrotation Yrotation Zrotation
				JOINT mixamorig:Neck
				{
					OFFSET 0.000000 0.426989 -0.022847
					CHANNELS 3 Xrotation Yrotation Zrotation
					JOINT mixamorig:Head
					{
						OFFSET 0.000000 0.288600 0.098000
						CHANNELS 3 Xrotation Yrotation Zrotation
						JOINT mixamorig:HeadTop_End
						{
							OFFSET 0.000000 0.712700 0.242000
							CHANNELS 3 Xrotation Yrotation Zrotation
							End Site
							{
								OFFSET 0.000000 0.752666 0.000000
							}
						}
					}
				}
				JOINT mixamorig:LeftShoulder
				{
					OFFSET 0.202600 0.346984 -0.022672
					CHANNELS 3 Xrotation Yrotation Zrotation
					JOINT mixamorig:LeftArm
					{
						OFFSET 0.427337 -0.109325 0.000307
						CHANNELS 3 Xrotation Yrotation Zrotation
						JOINT mixamorig:LeftForeArm
						{
							OFFSET 0.849600 0.000000 0.000000
							CHANNELS 3 Xrotation Yrotation Zrotation
							JOINT mixamorig:LeftHand
							{
								OFFSET 0.753900 0.000000 0.000000
								CHANNELS 3 Xrotation Yrotation Zrotation
								JOINT mixamorig:LeftHandThumb1
								{
									OFFSET 0.136012 -0.086473 0.045448
									CHANNELS 3 Xrotation Yrotation Zrotation
									JOINT mixamorig:LeftHandThumb2
									{
										OFFSET 0.103772 -0.059913 0.059913
										CHANNELS 3 Xrotation Yrotation Zrotation
										JOINT mixamorig:LeftHandThumb3
										{
											OFFSET 0.095779 -0.055298 0.055298
											CHANNELS 3 Xrotation Yrotation Zrotation
											JOINT mixamorig:LeftHandThumb4
											{
												OFFSET 0.073275 -0.042305 0.042305
												CHANNELS 3 Xrotation Yrotation Zrotation
												End Site
												{
													OFFSET 0.065698 -0.038445 0.056164
												}
											}
										}
									}
								}
								JOINT mixamorig:LeftHandIndex1
								{
									OFFSET 0.449965 -0.020370 0.085418
									CHANNELS 3 Xrotation Yrotation Zrotation
									JOINT mixamorig:LeftHandIndex2
									{
										OFFSET 0.102424 0.000000 -0.000000
										CHANNELS 3 Xrotation Yrotation Zrotation
										JOINT mixamorig:LeftHandIndex3
										{
											OFFSET 0.096306 0.000000 -0.000000
											CHANNELS 3 Xrotation Yrotation Zrotation
											JOINT mixamorig:LeftHandIndex4
											{
												OFFSET 0.078408 0.000000 -0.000000
												CHANNELS 3 Xrotation Yrotation Zrotation
												End Site
												{
													OFFSET 0.078400 -0.000010 -0.001100
												}
											}
										}
									}
								}
								JOINT mixamorig:LeftHandMiddle1
								{
									OFFSET 0.430485 0.000000 0.000000
									CHANNELS 3 Xrotation Yrotation Zrotation
									JOINT mixamorig:LeftHandMiddle2
									{
										OFFSET 0.112203 0.000000 0.000000
										CHANNELS 3 Xrotation Yrotation Zrotation
										JOINT mixamorig:LeftHandMiddle3
										{
											OFFSET 0.108209 0.000000 0.000000
											CHANNELS 3 Xrotation Yrotation Zrotation
											JOINT mixamorig:LeftHandMiddle4
											{
												OFFSET 0.087466 0.000000 0.000000
												CHANNELS 3 Xrotation Yrotation Zrotation
												End Site
												{
													OFFSET 0.087400 -0.000057 -0.003400
												}
											}
										}
									}
								}
								JOINT mixamorig:LeftHandRing1
								{
									OFFSET 0.364574 -0.002440 -0.092011
									CHANNELS 3 Xrotation Yrotation Zrotation
									JOINT mixamorig:LeftHandRing2
									{
										OFFSET 0.114832 0.000000 0.000000
										CHANNELS 3 Xrotation Yrotation Zrotation
										JOINT mixamorig:LeftHandRing3
										{
											OFFSET 0.104409 0.000000 0.000000
											CHANNELS 3 Xrotation Yrotation Zrotation
											JOINT mixamorig:LeftHandRing4
											{
												OFFSET 0.080424 0.000000 0.000000
												CHANNELS 3 Xrotation Yrotation Zrotation
												End Site
												{
													OFFSET 0.080200 -0.000053 -0.006000
												}
											}
										}
									}
								}
								JOINT mixamorig:LeftHandPinky1
								{
									OFFSET 0.312269 -0.016255 -0.171399
									CHANNELS 3 Xrotation Yrotation Zrotation
									JOINT mixamorig:LeftHandPinky2
									{
										OFFSET 0.087028 0.000000 0.000000
										CHANNELS 3 Xrotation Yrotation Zrotation
										JOINT mixamorig:LeftHandPinky3
										{
											OFFSET 0.073733 0.000000 0.000000
											CHANNELS 3 Xrotation Yrotation Zrotation
											JOINT mixamorig:LeftHandPinky4
											{
												OFFSET 0.056250 0.000000 0.000000
												CHANNELS 3 Xrotation Yrotation Zrotation
												End Site
												{
													OFFSET 0.056100 -0.000056 -0.004100
												}
											}
										}
									}
								}
							}
						}
					}
				}
				JOINT mixamorig:RightShoulder
				{
					OFFSET -0.202600 0.346968 -0.022971
					CHANNELS 3 Xrotation Yrotation Zrotation
					JOINT mixamorig:RightArm
					{
						OFFSET -0.427342 -0.109309 -0.000307
						CHANNELS 3 Xrotation Yrotation Zrotation
						JOINT mixamorig:RightForeArm
						{
							OFFSET -0.849600 0.000000 -0.000000
							CHANNELS 3 Xrotation Yrotation Zrotation
							JOINT mixamorig:RightHand
							{
								OFFSET -0.753900 0.000000 -0.000000
								CHANNELS 3 Xrotation Yrotation Zrotation
								JOINT mixamorig:RightHandThumb1
								{
									OFFSET -0.139217 -0.077736 0.046135
									CHANNELS 3 Xrotation Yrotation Zrotation
									JOINT mixamorig:RightHandThumb2
									{
										OFFSET -0.102889 -0.059403 0.059403
										CHANNELS 3 Xrotation Yrotation Zrotation
										JOINT mixamorig:RightHandThumb3
										{
											OFFSET -0.097122 -0.056073 0.056073
											CHANNELS 3 Xrotation Yrotation Zrotation
											JOINT mixamorig:RightHandThumb4
											{
												OFFSET -0.076714 -0.044291 0.044291
												CHANNELS 3 Xrotation Yrotation Zrotation
												End Site
												{
													OFFSET -0.072157 -0.042014 0.053259
												}
											}
										}
									}
								}
								JOINT mixamorig:RightHandIndex1
								{
									OFFSET -0.450325 -0.003448 0.076701
									CHANNELS 3 Xrotation Yrotation Zrotation
									JOINT mixamorig:RightHandIndex2
									{
										OFFSET -0.104343 0.000000 -0.000000
										CHANNELS 3 Xrotation Yrotation Zrotation
										JOINT mixamorig:RightHandIndex3
										{
											OFFSET -0.097003 0.000000 -0.000000
											CHANNELS 3 Xrotation Yrotation Zrotation
											JOINT mixamorig:RightHandIndex4
											{
												OFFSET -0.081630 0.000000 -0.000000
												CHANNELS 3 Xrotation Yrotation Zrotation
												End Site
												{
													OFFSET -0.081600 -0.000082 -0.002198
												}
											}
										}
									}
								}
								JOINT mixamorig:RightHandMiddle1
								{
									OFFSET -0.397234 0.000000 -0.000000
									CHANNELS 3 Xrotation Yrotation Zrotation
									JOINT mixamorig:RightHandMiddle2
									{
										OFFSET -0.115313 0.000000 -0.000000
										CHANNELS 3 Xrotation Yrotation Zrotation
										JOINT mixamorig:RightHandMiddle3
										{
											OFFSET -0.121324 0.000000 -0.000000
											CHANNELS 3 Xrotation Yrotation Zrotation
											JOINT mixamorig:RightHandMiddle4
											{
												OFFSET -0.103502 0.000000 0.000000
												CHANNELS 3 Xrotation Yrotation Zrotation
												End Site
												{
													OFFSET -0.103400 -0.000083 -0.004599
												}
											}
										}
									}
								}
								JOINT mixamorig:RightHandRing1
								{
									OFFSET -0.356229 0.006227 -0.097026
									CHANNELS 3 Xrotation Yrotation Zrotation
									JOINT mixamorig:RightHandRing2
									{
										OFFSET -0.116123 0.000000 0.000000
										CHANNELS 3 Xrotation Yrotation Zrotation
										JOINT mixamorig:RightHandRing3
										{
											OFFSET -0.105608 0.000000 0.000000
											CHANNELS 3 Xrotation Yrotation Zrotation
											JOINT mixamorig:RightHandRing4
											{
												OFFSET -0.089388 0.000000 0.000000
												CHANNELS 3 Xrotation Yrotation Zrotation
												End Site
												{
													OFFSET -0.089200 -0.000198 -0.005797
												}
											}
										}
									}
								}
								JOINT mixamorig:RightHandPinky1
								{
									OFFSET -0.319258 -0.005155 -0.189362
									CHANNELS 3 Xrotation Yrotation Zrotation
									JOINT mixamorig:RightHandPinky2
									{
										OFFSET -0.084919 0.000000 0.000000
										CHANNELS 3 Xrotation Yrotation Zrotation
										JOINT mixamorig:RightHandPinky3
										{
											OFFSET -0.068357 0.000000 0.000000
											CHANNELS 3 Xrotation Yrotation Zrotation
											JOINT mixamorig:RightHandPinky4
											{
												OFFSET -0.053427 0.000000 0.000000
												CHANNELS 3 Xrotation Yrotation Zrotation
												End Site
												{
													OFFSET -0.053400 -0.000117 -0.001696
												}
											}
										}
									}
								}
							}
						}
					}
				}
			}
		}
	}
	JOINT mixamorig:LeftUpLeg
	{
		OFFSET 0.302300 -0.158000 -0.006800
		CHANNELS 3 Xrotation Yrotation Zrotation
		JOINT mixamorig:LeftLeg
		{
			OFFSET -0.021195 -1.512800 -0.072827
			CHANNELS 3 Xrotation Yrotation Zrotation
			JOINT mixamorig:LeftFoot
			{
				OFFSET 0.021196 -1.499076 -0.232845
				CHANNELS 3 Xrotation Yrotation Zrotation
				JOINT mixamorig:LeftToeBase
				{
					OFFSET 0.176214 -0.335644 0.384848
					CHANNELS 3 Xrotation Yrotation Zrotation
					JOINT mixamorig:LeftToe_End
					{
						OFFSET 0.078950 -0.008059 0.195507
						CHANNELS 3 Xrotation Yrotation Zrotation
						End Site
						{
							OFFSET 0.078950 -0.008059 0.195507
						}
					}
				}
			}
		}
	}
	JOINT mixamorig:RightUpLeg
	{
		OFFSET -0.302300 -0.158000 -0.006600
		CHANNELS 3 Xrotation Yrotation Zrotation
		JOINT mixamorig:RightLeg
		{
			OFFSET 0.021196 -1.512831 -0.074247
			CHANNELS 3 Xrotation Yrotation Zrotation
			JOINT mixamorig:RightFoot
			{
				OFFSET -0.021196 -1.499093 -0.231430
				CHANNELS 3 Xrotation Yrotation Zrotation
				JOINT mixamorig:RightToeBase
				{
					OFFSET -0.176206 -0.335620 0.376547
					CHANNELS 3 Xrotation Yrotation Zrotation
					JOINT mixamorig:RightToe_End
					{
						OFFSET -0.078935 -0.008056 0.196268
						CHANNELS 3 Xrotation Yrotation Zrotation
						End Site
						{
							OFFSET -0.078935 -0.008056 0.196268
						}
					}
				}
			}
		}
	}
}
MOTION
Frames: 4
Frame Time: 0.016667
-0.006575 2.991031 -0.000271 -1.661127 -3.011050 -0.007919 1.014307 0.776571 0.041427 3.073219 1.055449 0.668540 3.069589 1.044061 0.698775 1.965744 -0.412267 2.942196 -8.223730 3.343780 -5.916931 -0.000000 -0.000000 -0.000000 -7.093908 13.268191 42.627108 -84.267070 -26.716051 1.767794 -0.000017 -61.005972 -0.000018 -1.218160 -19.191628 6.515939 -6.116590 -3.608368 17.999256 22.080291 28.246015 -7.275563 -0.756330 -16.860259 7.712556 0.000003 -0.000001 -0.000003 -2.555534 0.070960 -34.305554 0.219843 1.591428 -15.730455 0.085046 -0.995715 9.764604 0.000002 0.000002 -0.000001 -2.373814 -1.019989 -27.293055 0.280925 1.794023 -17.797451 0.034158 0.632356 -6.183033 0.000002 0.000001 0.000001 -1.392685 0.356893 -24.305809 0.369230 2.048663 -20.430216 0.220918 1.595234 -15.769167 0.000001 -0.000002 -0.000001 -4.002637 5.324372 -14.459773 0.898034 3.118755 -32.119726 0.116768 1.165019 -11.446169 -0.000000 0.000000 -0.000001 -6.345932 -12.351189 -41.069391 -107.596523 26.558214 18.029688 -0.000039 73.398709 0.000033 -9.858332 1.987855 -20.060920 -6.360193 -1.807588 -19.814049 9.430534 6.123025 -10.648991 -3.124416 -18.488822 -6.096621 -0.000001 -0.000003 -0.000001 0.496979 4.919451 -2.357785 0.925887 -2.788836 36.725401 0.050956 -0.687688 8.473008 -0.000003 0.000003 -0.000000 0.166184 -0.834020 -5.471793 0.787234 -2.592888 33.773424 0.185336 -1.302057 16.201226 0.000001 0.000003 -0.000003 -0.082765 -5.378397 -2.480464 0.219142 -1.413253 17.628814 0.218722 -1.411909 17.611303 0.000000 0.000003 0.000000 -1.016532 -8.695211 -9.241985 0.298099 -1.641056 20.590575 0.127636 -1.083978 13.430858 -0.000001 0.000001 0.000000 -23.185789 0.785545 27.187725 42.461124 -9.370232 9.832296 -12.832377 -4.230071 -21.267307 -0.945756 0.018401 -3.441555 -0.000000 -0.000002 0.000000 -24.753531 7.618315 -18.067520 52.927471 6.259768 -9.804737 -18.638881 5.120598 15.891490 -6.937929 -0.007695 2.263057 -0.000000 -0.000003 0.000001 
-0.005960 3.001498 -0.000809 -1.615479 -3.004873 -0.004928 0.943801 0.773151 -0.012282 2.967997 1.049865 0.595193 2.926603 1.023498 0.640944 1.285843 -0.495011 2.808291 -7.605336 2.789561 -6.001463 -0.000000 -0.000000 -0.000000 -6.443744 12.871141 40.282441 -77.956856 -25.543161 3.561507 0.000007 -55.888064 0.000002 -4.402170 -18.324182 7.708893 -4.776562 -4.456253 13.285445 21.445570 27.178805 -6.524060 -0.040642 -13.566491 10.566957 -0.000000 -0.000003 -0.000003 -2.297751 0.905437 -36.603667 0.238154 1.654952 -16.376085 0.051830 -0.778442 7.619252 -0.000002 -0.000000 -0.000001 -2.410722 -0.356965 -30.264637 0.292065 1.828415 -18.150604 0.036838 0.656603 -6.421039 -0.000005 -0.000000 -0.000001 -1.461967 0.670982 -26.638110 0.401302 2.132871 -21.310609 0.233095 1.637699 -16.200394 -0.000001 0.000001 0.000000 -4.116015 4.473351 -17.010871 0.897477 3.117869 -32.109761 0.116770 1.165053 -11.446402 0.000003 -0.000000 0.000001 -5.840863 -12.215621 -38.516516 -100.982872 27.984031 15.865580 0.000003 65.191833 -0.000006 -14.037552 2.117382 -16.926107 -5.451868 0.154840 -17.669518 11.035909 0.293015 -9.383587 -1.490039 -15.756435 -7.887957 -0.000001 0.000002 -0.000005 -0.279367 4.788125 3.779076 0.940015 -2.807694 37.015353 0.051731 -0.692925 8.537945 0.000000 -0.000001 0.000002 0.061961 0.093566 -0.241979 0.808294 -2.624073 34.235705 0.191422 -1.322873 16.467709 -0.000002 0.000000 -0.000001 0.099261 -4.186301 1.521431 0.266086 -1.553171 19.441643 0.222796 -1.424672 17.776179 0.000002 0.000003 -0.000000 -0.534528 -7.050160 -5.756732 0.361775 -1.801408 22.710536 0.135899 -1.118051 13.861292 -0.000001 -0.000002 -0.000002 -23.655071 0.698400 27.276582 42.650765 -8.928642 9.832296 -11.354645 -5.677238 -21.674291 -2.522951 0.010683 -2.643596 -0.000000 -0.000003 -0.000000 -25.286125 7.125097 -18.235311 52.896263 6.483933 -9.843494 -16.854697 6.103559 15.961095 -7.721933 -0.010736 2.668594 0.000000 0.000001 -0.000000 
-0.004330 3.030251 -0.002454 -1.494205 -2.985392 -0.001026 0.845238 0.756424 -0.046575 2.829782 1.029463 0.535254 2.771371 0.995976 0.585859 0.585946 -0.575915 2.678338 -6.962295 2.245583 -6.119701 0.000000 -0.000000 0.000000 -5.916355 12.537060 37.947862 -71.646376 -24.351460 5.034701 -0.000013 -50.630956 -0.000034 -7.834362 -17.659290 8.762778 -3.347304 -5.434665 8.601735 20.835111 26.076334 -5.782914 0.616522 -10.159855 13.354008 0.000002 0.000000 -0.000006 -2.001691 1.698854 -38.935715 0.256682 1.716773 -17.006203 0.027257 -0.565062 5.522853 0.000002 0.000000 -0.000003 -2.407272 0.296454 -33.263158 0.305179 1.867871 -18.556586 0.039687 0.681481 -6.665358 0.000001 0.000001 0.000002 -1.542276 0.938776 -28.949074 0.436932 2.221867 -22.247441 0.246145 1.681937 -16.651006 -0.000004 0.000000 0.000001 -4.349500 3.604093 -19.441838 0.898364 3.119304 -32.126232 0.117051 1.166489 -11.460855 0.000002 -0.000001 -0.000000 -5.434395 -12.133351 -35.980822 -94.136167 29.317812 13.595065 0.000013 56.855806 0.000002 -18.452422 1.777548 -13.739705 -4.545442 2.230952 -15.567606 12.636018 -5.576373 -7.927087 0.218716 -13.128494 -9.805848 -0.000002 -0.000003 -0.000003 -1.108060 4.648541 9.662834 0.958258 -2.831672 37.386130 0.052583 -0.698648 8.609033 0.000001 -0.000004 0.000001 -0.262977 1.120387 5.086731 0.832160 -2.658761 34.753570 0.197744 -1.344061 16.739364 -0.000000 -0.000001 0.000001 0.087655 -2.914289 5.577838 0.318559 -1.694486 21.293453 0.227086 -1.437918 17.947104 -0.000002 0.000001 0.000000 -0.261676 -5.328305 -2.285431 0.431938 -1.960553 24.847690 0.144484 -1.152232 14.294280 -0.000000 0.000001 0.000001 -24.217800 0.912403 27.180671 42.480508 -8.845080 9.811287 -8.687055 -7.126608 -20.934535 -3.675277 0.006866 -2.133842 0.000000 -0.000003 -0.000001 -25.834304 6.466541 -18.353275 52.438429 7.060456 -9.810847 -14.133907 6.981367 15.634305 -8.102362 -0.008683 2.419826 0.000000 0.000001 -0.000002 
-0.001904 3.068715 -0.004759 -1.329720 -2.956477 -0.004881 0.733834 0.730141 -0.062312 2.669880 0.999243 0.484473 2.607801 0.964368 0.533910 -0.194172 -0.657721 2.588350 -6.319219 1.751697 -6.275642 -0.000000 0.000000 -0.000000 -5.491872 12.309765 35.575966 -65.327542 -23.091061 6.277010 0.000010 -45.442502 -0.000004 -11.338462 -17.206787 9.461469 -1.903819 -6.493769 4.179268 20.268037 24.974600 -5.075641 1.178542 -6.845813 15.980411 0.000001 0.000002 -0.000003 -1.707875 2.385708 -41.160503 0.275426 1.776837 -17.620899 0.011239 -0.363098 3.545593 -0.000001 0.000001 -0.000001 -2.362116 0.916694 -36.153410 0.321400 1.915433 -19.047456 0.042640 0.706387 -6.910185 0.000001 0.000001 0.000000 -1.644849 1.139357 -31.155361 0.475969 2.314902 -23.233379 0.259679 1.726577 -17.106378 -0.000000 -0.000001 -0.000002 -4.660845 2.793324 -21.714006 0.900102 3.122052 -32.158125 0.117516 1.168776 -11.483536 0.000002 -0.000000 0.000001 -5.067038 -12.076200 -33.407490 -86.976189 30.417045 11.026713 -0.000012 48.733629 0.000007 -22.925759 1.008258 -10.732336 -3.687194 4.318055 -13.611986 14.136995 -10.950510 -6.400127 1.835369 -10.716741 -11.666941 -0.000001 -0.000005 -0.000006 -1.874894 4.635103 14.734630 0.978985 -2.858568 37.803584 0.053519 -0.704735 8.684643 -0.000001 0.000001 0.000002 -0.813036 2.173629 10.254556 0.857591 -2.695001 35.298086 0.204327 -1.365730 17.017307 0.000001 0.000002 -0.000002 -0.134758 -1.579584 9.565369 0.375142 -1.832969 23.131790 0.231454 -1.451410 18.121293 0.000001 0.000001 -0.000000 -0.211927 -3.653700 1.061131 0.505270 -2.111607 26.911493 0.152915 -1.184836 14.707506 -0.000000 0.000001 0.000002 -25.163047 1.148369 26.910098 42.663923 -8.482150 9.784290 -5.001753 -8.582084 -18.984762 -4.441149 0.004949 -1.823049 0.000001 -0.000002 -0.000001 -26.641943 5.752831 -18.365074 52.141801 7.605199 -9.803295 -10.706026 7.713161 14.738442 -8.139600 -0.003445 1.548809 0.000000 0.000004 -0.000001 
